<?xml version="1.0" encoding="utf-8"?>
<!-- Generator: Adobe Illustrator 12.0.0, SVG Export Plug-In . SVG Version: 6.00 Build 51448)  -->
<!DOCTYPE svg PUBLIC "-//W3C//DTD SVG 1.1//EN" "http://www.w3.org/Graphics/SVG/1.1/DTD/svg11.dtd" [
	<!ENTITY ns_svg "http://www.w3.org/2000/svg">
	<!ENTITY ns_xlink "http://www.w3.org/1999/xlink">
]>
<svg  version="1.1" id="レイヤー_1" xmlns="&ns_svg;" xmlns:xlink="&ns_xlink;" width="227.691" height="233.947"
	 viewBox="0 0 227.691 233.947" style="overflow:visible;enable-background:new 0 0 227.691 233.947;" xml:space="preserve">
<g>
	<g>
		<g>
			<g>
				<g>
					<g id="XMLID_1_">
						<g>
							<path style="fill:#F7E9C6;" d="M162.966,231.353h-94.97c6.69-23.5,12.57-41.649,12.57-41.649l34.919,8.899l34.91-8.899
								C150.395,189.704,156.286,207.853,162.966,231.353z"/>
						</g>
						<g>
							<path style="fill:#EACF9F;" d="M87.788,206.84c0,0-8.102-2.365-11.571-4.729c-2.061,2.868-5.463,14.639-9.122,29.242h14.969
								C85.27,217.051,87.788,206.84,87.788,206.84z"/>
						</g>
						<g>
							<path style="fill:#EACF9F;" d="M154.242,202.112c-3.474,2.362-11.573,4.729-11.573,4.729s2.52,10.212,5.727,24.515h14.969
								C159.704,216.75,156.302,204.98,154.242,202.112z"/>
						</g>
						<g>
							<path style="fill:none;stroke:#000000;stroke-width:5.1862;stroke-linecap:round;stroke-linejoin:round;" d="
								M150.395,189.704l-34.91,8.899l-34.919-8.899c0,0-5.88,18.149-12.57,41.649h94.97
								C156.286,207.853,150.395,189.704,150.395,189.704z"/>
						</g>
					</g>
				</g>
				<path style="fill:#BF0000;stroke:#000000;stroke-width:5.1862;stroke-linejoin:round;" d="M115.911,202.917l-42.183,0.345
					c0,0,2.768,15.56,42.183,15.56c39.412,0,42.18-15.56,42.18-15.56L115.911,202.917z"/>
				<g>
					<g>
						<path style="fill:#BF0000;stroke:#000000;stroke-width:5.1862;stroke-linejoin:round;" d="M111.366,214.326
							c0,0-9.853-6.049-14.175-5.356c-4.322,0.688-3.458,19.189-0.52,21.091c2.938,1.898,14.693-6.225,14.693-6.225L111.366,214.326
							L111.366,214.326z"/>
						<path style="fill:#BF0000;stroke:#000000;stroke-width:5.1862;stroke-linejoin:round;" d="M119.62,214.326
							c0,0,9.852-6.049,14.174-5.356c4.321,0.688,3.457,19.189,0.52,21.091c-2.938,1.898-14.692-6.225-14.692-6.225L119.62,214.326
							L119.62,214.326z"/>
					</g>
					
						<circle style="fill:#BF0000;stroke:#000000;stroke-width:5.1862;stroke-linejoin:round;" cx="115.492" cy="219.769" r="6.137"/>
				</g>
			</g>
			<g>
				<g>
					<g>
						<path style="fill:#F7E9C6;" d="M36.256,75.866C21.12,92.955,12.44,116.786,12.44,141.251
							c0,21.659,10.595,39.736,30.639,52.277c18.218,11.398,43.933,17.676,72.405,17.676c28.472,0,54.184-6.276,72.399-17.676
							c20.045-12.541,30.64-30.618,30.64-52.277c0-24.464-8.68-48.296-23.814-65.385C176.314,55.098,148.92,44.12,115.484,44.12
							C82.047,44.12,54.651,55.098,36.256,75.866z"/>
						<path d="M115.482,41.527c-17.872,0-34.078,3.04-48.169,9.037c-12.898,5.488-24,13.423-32.999,23.583
							c-8.158,9.21-14.427,20.04-18.635,32.188c-1.947,5.62-3.431,11.494-4.408,17.459c-0.946,5.765-1.425,11.637-1.425,17.456
							c0,11.569,2.908,22.225,8.647,31.667c5.392,8.873,13.199,16.546,23.208,22.81c9.456,5.916,20.715,10.476,33.464,13.551
							c12.436,2.999,25.999,4.52,40.316,4.52c14.315,0,27.879-1.521,40.313-4.52c12.747-3.075,24.008-7.635,33.463-13.551
							c10.009-6.264,17.816-13.938,23.208-22.81c5.738-9.442,8.647-20.098,8.647-31.667c0-5.819-0.479-11.691-1.425-17.456
							c-0.979-5.965-2.461-11.839-4.408-17.459c-4.207-12.148-10.477-22.979-18.634-32.188
							c-8.998-10.16-20.101-18.095-32.997-23.583C149.561,44.567,133.354,41.527,115.482,41.527L115.482,41.527z M15.032,141.251
							c0-43.725,28.288-94.538,100.45-94.538c72.161,0,100.447,50.813,100.447,94.538l0,0l0,0c0,43.731-44.976,67.36-100.447,67.36
							C60.004,208.612,15.032,184.983,15.032,141.251L15.032,141.251L15.032,141.251z"/>
					</g>
				</g>
				<path style="fill:#EDBA47;" d="M133.342,68.219c-7.156-5.146-16.158,12.257-18.273,16.639
					c-2.115-4.382-11.117-21.785-18.279-16.639c-8.167,5.874-12.493,39.297-7.205,39.297c5.283,0,10.088-17.616,12.014-18.521
					c1.439,4.519,12.491,15.357,12.491,15.357h1.961c0,0,11.047-10.84,12.491-15.357c1.919,0.904,6.728,18.521,12.011,18.521
					C145.838,107.517,141.511,74.094,133.342,68.219z"/>
				<g>
					<path style="fill:none;" d="M186.288,163.5c2.453-2.181,13.068,1.369,22.59,5.229c1.857-3.284,3.369-6.763,4.511-10.433
						c-11.487-6.325-23.135-14.354-21.264-17.069c1.802-2.618,13.069,0.05,23.699,3.299c0.058-1.081,0.105-2.166,0.105-3.273
						c0-43.725-28.286-94.537-100.446-94.537c-72.163,0-100.451,50.813-100.451,94.537c0,1.142,0.049,2.26,0.109,3.372
						c10.722-3.293,22.198-6.043,24.021-3.396c1.885,2.736-9.964,10.873-21.54,17.222c1.148,3.653,2.663,7.116,4.521,10.386
						c9.589-3.897,20.377-7.533,22.854-5.333c2.342,2.081-5.766,9.78-14.621,16.409c17.77,18.809,49.23,28.702,85.106,28.702
						c35.961,0,67.492-9.941,85.238-28.842C191.939,173.171,183.962,165.567,186.288,163.5z"/>
					<path style="fill:#EDBA47;" d="M39.163,141.225c-1.822-2.646-13.298,0.104-24.021,3.396c0.265,4.875,1.116,9.48,2.48,13.824
						C29.198,152.098,41.048,143.962,39.163,141.225z"/>
					<path style="fill:#EDBA47;" d="M44.998,163.5c-2.477-2.2-13.265,1.436-22.854,5.333c2.261,3.979,5.019,7.675,8.232,11.076
						C39.232,173.28,47.34,165.581,44.998,163.5z"/>
					<path style="fill:#EDBA47;" d="M192.125,141.225c-1.871,2.716,9.775,10.744,21.264,17.069
						c1.345-4.328,2.181-8.916,2.437-13.771C205.194,141.275,193.927,138.607,192.125,141.225z"/>
					<path style="fill:#EDBA47;" d="M186.288,163.5c-2.326,2.067,5.651,9.672,14.435,16.271c3.185-3.395,5.916-7.078,8.155-11.042
						C199.356,164.869,188.741,161.319,186.288,163.5z"/>
				</g>
				<g>
					<path style="fill:#DC9130;stroke:#000000;stroke-width:5.1862;stroke-linecap:round;stroke-linejoin:round;" d="M24.563,98.121
						c0,0-0.592-6.502-0.592-14.185c1.184,0.591,7.091,1.184,7.091,1.184s-0.59-6.499-0.59-8.861
						c2.363,1.18,8.271,0.589,8.271,0.589s0.591-5.316,0.591-9.453c1.773-1.185,9.453,2.361,9.453,2.361s1.183-4.724,1.774-9.452
						c3.545,0,7.09,3.545,7.09,3.545s0.592-8.273,1.771-8.864c2.953,3.549,8.866,5.911,8.866,5.911"/>
					<path style="fill:#DC9130;stroke:#000000;stroke-width:5.1862;stroke-linecap:round;stroke-linejoin:round;" d="M206.07,98.121
						c0,0,0.59-6.502,0.59-14.185c-1.181,0.591-7.09,1.184-7.09,1.184s0.591-6.499,0.591-8.861c-2.364,1.18-8.272,0.589-8.272,0.589
						s-0.591-5.316-0.591-9.453c-1.771-1.185-9.453,2.361-9.453,2.361s-1.182-4.724-1.773-9.452c-3.544,0-7.09,3.545-7.09,3.545
						s-0.591-8.273-1.773-8.864c-2.95,3.549-8.861,5.911-8.861,5.911"/>
				</g>
			</g>
			<g>
				<g>
					<g>
						<path style="fill:none;stroke:#000000;stroke-width:3.5453;stroke-linecap:round;" d="M42.224,169.167
							c0,0-10.892-3.63-36.822,5.704"/>
						<path style="fill:none;stroke:#000000;stroke-width:3.5453;stroke-linecap:round;" d="M42.224,160.351
							c0,0-16.077-8.817-40.452,1.037"/>
					</g>
				</g>
				<g>
					<g>
						<path style="fill:none;stroke:#000000;stroke-width:3.5453;stroke-linecap:round;" d="M185.466,169.167
							c0,0,10.892-3.63,36.821,5.704"/>
						<path style="fill:none;stroke:#000000;stroke-width:3.5453;stroke-linecap:round;" d="M185.466,160.351
							c0,0,16.077-8.817,40.453,1.037"/>
					</g>
				</g>
			</g>
		</g>
	</g>
	<g>
		<path style="fill:none;stroke:#000000;stroke-width:3.5266;stroke-linecap:round;" d="M113.776,165.083
			c0,0-3.224,7.091-6.45,7.091"/>
		<path style="fill:none;stroke:#000000;stroke-width:3.5266;stroke-linecap:round;" d="M113.915,165.083
			c0,0,3.226,7.091,6.452,7.091"/>
		
			<line style="fill:none;stroke:#000000;stroke-width:3.5266;stroke-linecap:round;" x1="113.779" y1="164.496" x2="113.779" y2="160.751"/>
	</g>
	<g>
		<g>
			<path style="fill:#F7E9C6;stroke:#000000;stroke-width:5.1862;stroke-linecap:round;stroke-linejoin:round;" d="M20.93,103.984
				c0-1.897-1.421-14.704,1.425-28.457c-5.692-4.743-13.282-16.124-8.063-23.712c5.218-7.589,36.044-17.548,72.088,5.691"/>
			<path style="fill:#FDCDCA;" d="M29.943,90.228c-1.709,0-5.692-13.75-2.37-18.967c3.318-5.22,41.732-13.653,51.694-12.705
				c0.947,0.951,0,2.374,0,2.374S47.966,72.681,43.221,76.478C38.478,80.269,32.313,90.228,29.943,90.228z"/>
		</g>
		<g>
			<path style="fill:#F7E9C6;stroke:#000000;stroke-width:5.1862;stroke-linecap:round;stroke-linejoin:round;" d="M209.763,103.984
				c0-1.897,1.425-14.704-1.422-28.457c5.692-4.743,13.28-16.124,8.063-23.712c-5.217-7.589-36.044-17.548-72.091,5.691"/>
			<path style="fill:#FDCDCA;" d="M200.752,90.228c1.711,0,5.691-13.75,2.371-18.967c-3.317-5.217-41.732-13.653-51.693-12.705
				c-0.948,0.951,0,2.374,0,2.374s31.302,11.751,36.044,15.548C192.215,80.269,198.382,90.228,200.752,90.228z"/>
		</g>
	</g>
	<g>
		<path style="fill:#392B14;stroke:#000000;stroke-width:5.1862;" d="M160.331,55.379c0,9.081-20.813,16.438-46.485,16.438
			c-25.672,0-46.483-7.357-46.483-16.438c0-9.074,20.812-16.437,46.483-16.437C139.518,38.942,160.331,46.304,160.331,55.379"/>
		<g>
			<path style="fill:#392B14;stroke:#000000;stroke-width:5.1862;" d="M143.416,15.17c0.327-0.628,0.514-1.274,0.514-1.939
				c0-5.875-13.472-10.638-30.081-10.638c-16.615,0-30.08,4.762-30.08,10.638c0,0.665,0.182,1.312,0.51,1.943l-0.51,0.024v37.815
				c0,0,2.067,8.191,30.109,8.191s30.111-8.191,30.111-8.191V15.198L143.416,15.17z"/>
			<path style="fill:#DC5440;stroke:#000000;stroke-width:5.1862;" d="M113.845,46.713c-27.403,0-30.077-8.667-30.077-8.667v14.968
				c0,0,2.067,8.191,30.109,8.191s30.112-8.191,30.112-8.191V38.046C143.99,38.046,141.251,46.713,113.845,46.713"/>
			<g>
				<path style="fill:#261A14;" d="M141.251,11.456c0,4.59-12.567,8.311-28.073,8.311c-15.504,0-28.074-3.721-28.074-8.311
					c0-4.588,12.57-8.311,28.074-8.311C128.683,3.145,141.251,6.868,141.251,11.456"/>
			</g>
		</g>
	</g>
	<g>
		<g>
			<path style="fill:none;stroke:#000000;stroke-width:3.5453;stroke-linecap:round;stroke-linejoin:round;" d="M90.379,105.932
				c0,0-9.334-5.704-21.78-7"/>
			<path style="fill:none;stroke:#000000;stroke-width:3.5453;stroke-linecap:round;stroke-linejoin:round;" d="M93.751,100.747
				c0,0-6.482-12.447-30.599-17.893"/>
		</g>
		<g>
			<path style="fill:none;stroke:#000000;stroke-width:3.5453;stroke-linecap:round;stroke-linejoin:round;" d="M137.313,105.932
				c0,0,9.334-5.704,21.781-7"/>
			<path style="fill:none;stroke:#000000;stroke-width:3.5453;stroke-linecap:round;stroke-linejoin:round;" d="M133.941,100.747
				c0,0,6.482-12.447,30.6-17.893"/>
		</g>
	</g>
	
		<ellipse style="fill:#F7CCD4;stroke:#000000;stroke-width:3.5266;stroke-linecap:round;stroke-linejoin:round;" cx="113.846" cy="157.083" rx="5.445" ry="3.371"/>
	<g>
		<path style="fill:#FFFFFF;" d="M46.001,158.285c12.022,10.241,27.606,2.672,27.606,2.672l-16.371-46.305
			c0,0-16.318,1.705-18.804,6.677C33.534,131.125,36.206,152.497,46.001,158.285z"/>
		<path style="fill:#DCDCDC;" d="M35.76,141.368c0,0,6.233-8.906,16.921-10.687c1.78-6.681,4.557-16.029,4.557-16.029
			s-20.584,3.116-22.812,15.583C33.534,137.358,35.76,141.368,35.76,141.368z"/>
		<g>
			<path style="fill:#B8CF3A;stroke:#000000;stroke-width:5.5911;" d="M60.25,111.98c0,0-13.032,9.657-13.744,22.457
				c-0.447,8.015,1.067,17.279,9.974,22.72c14.901,7.361,24.698-1.988,27.814-8.667c3.116-6.68,1.867-23.376-8.46-28.496
				C65.506,114.875,60.25,111.98,60.25,111.98z"/>
		</g>
		<path style="fill:#000302;" d="M88.747,138.695c0,0-1.783-19.59-20.927-27.606c-15.79-6.61-31.614,0-39.184,14.693
			c-1.333,9.351,0.445,18.7,12.912,30.276c-4.896-9.795-6.677-20.479-4.452-24.934c6.957-13.908,20.334-14.774,28.494-12.021
			C77.348,123.069,88.747,138.695,88.747,138.695z"/>
		<path style="fill:#000302;" d="M75.834,121.775c-10.687-7.123-21.373-6.233-21.373-6.233s-14.248,20.48-4.007,29.833
			c0,0,1.415-9.065,11.016-11.144c-0.266,1.389-0.421,2.888-0.421,4.464c0,6.886,2.792,12.467,6.235,12.467
			c3.44,0,6.233-5.581,6.233-12.467c0-1.161-0.086-2.277-0.233-3.344c7.905,3.333,11.456,10.912,11.456,10.912
			S86.518,128.898,75.834,121.775z"/>
		<ellipse style="fill:#FFFFFF;" cx="76.947" cy="132.33" rx="4.674" ry="5.656"/>
		<path style="fill:#FFFFFF;" d="M181.69,158.285c-12.021,10.241-27.604,2.672-27.604,2.672l16.369-46.305
			c0,0,16.319,1.705,18.806,6.677C194.158,131.125,191.486,152.497,181.69,158.285z"/>
		<path style="fill:#DCDCDC;" d="M191.932,141.368c0,0-6.234-8.906-16.921-10.687c-1.78-6.681-4.556-16.029-4.556-16.029
			s20.587,3.116,22.813,15.583C194.158,137.358,191.932,141.368,191.932,141.368z"/>
		<g>
			<path style="fill:#B8CF3A;stroke:#000000;stroke-width:5.5911;" d="M167.443,111.98c0,0,13.029,9.657,13.743,22.457
				c0.446,8.015-1.068,17.279-9.974,22.72c-14.899,7.361-24.696-1.988-27.813-8.667c-3.118-6.68-1.868-23.376,8.46-28.496
				C162.188,114.875,167.443,111.98,167.443,111.98z"/>
		</g>
		<path style="fill:#000302;" d="M138.947,138.695c0,0,1.781-19.59,20.927-27.606c15.79-6.61,31.612,0,39.184,14.693
			c1.335,9.351-0.446,18.7-12.913,30.276c4.898-9.795,6.68-20.479,4.453-24.934c-6.955-13.908-20.331-14.774-28.496-12.021
			C150.347,123.069,138.947,138.695,138.947,138.695z"/>
		<path style="fill:#000302;" d="M151.86,121.775c10.687-7.123,21.37-6.233,21.37-6.233s14.248,20.48,4.007,29.833
			c0,0-1.414-9.065-11.012-11.144c0.265,1.389,0.417,2.888,0.417,4.464c0,6.886-2.789,12.467-6.233,12.467
			s-6.233-5.581-6.233-12.467c0-1.161,0.087-2.277,0.233-3.344c-7.905,3.333-11.455,10.912-11.455,10.912
			S141.174,128.898,151.86,121.775z"/>
		<ellipse style="fill:#FFFFFF;" cx="174.675" cy="132.33" rx="4.677" ry="5.656"/>
	</g>
</g>
</svg>
